<?xml version="1.0" standalone="no"?>
<!DOCTYPE svg PUBLIC "-//W3C//DTD SVG 20010904//EN"
 "http://www.w3.org/TR/2001/REC-SVG-20010904/DTD/svg10.dtd">
<svg version="1.0" xmlns="http://www.w3.org/2000/svg"
 width="257.000000pt" height="415.000000pt" viewBox="0 0 257.000000 415.000000"
 preserveAspectRatio="xMidYMid meet">

<g transform="translate(0.000000,415.000000) scale(0.100000,-0.100000)"
fill="#000000" stroke="none">
<path d="M360 3970 l0 -60 900 0 900 0 0 60 0 60 -900 0 -900 0 0 -60z"/>
<path d="M180 2510 l0 -80 90 0 90 0 0 -355 0 -355 -90 0 -90 0 0 -80 0 -80
485 0 485 0 0 195 0 195 -90 0 -90 0 0 -115 0 -115 -210 0 -210 0 0 355 0 355
90 0 90 0 0 80 0 80 -275 0 -275 0 0 -80z"/>
<path d="M1270 2511 l0 -81 90 0 90 0 0 -360 0 -360 -90 0 -90 0 0 -75 0 -75
275 0 275 0 0 75 0 74 -87 3 -88 3 -3 133 -3 132 115 0 114 0 32 -97 c75 -227
162 -321 315 -339 52 -6 150 10 160 26 3 5 -3 41 -12 80 l-17 72 -43 -7 c-64
-9 -115 9 -161 59 -44 48 -58 71 -95 164 -24 57 -24 63 -9 68 106 33 189 108
213 191 7 26 12 73 12 105 -4 125 -73 209 -213 259 -62 22 -79 24 -422 27
l-358 4 0 -81z m743 -111 c86 -59 81 -185 -10 -242 -35 -21 -51 -23 -200 -26
l-163 -4 0 152 0 151 168 -3 c161 -3 170 -4 205 -28z"/>
<path d="M360 210 l0 -60 900 0 900 0 0 60 0 60 -900 0 -900 0 0 -60z"/>
</g>
</svg>
